<?xml version="1.0" encoding="UTF-8"?>
<svg version="1.1" xmlns="http://www.w3.org/2000/svg" width="333" height="299">
<path d="M0 0 C13.16684369 -0.41944239 27.35590853 1.69170222 39.3828125 7.16015625 C40.37667969 7.60359375 41.37054688 8.04703125 42.39453125 8.50390625 C49.09669615 11.66578078 54.7525606 15.36440697 60.3828125 20.16015625 C61.39794922 20.97613281 61.39794922 20.97613281 62.43359375 21.80859375 C78.98238063 35.49749319 88.09330019 56.0720246 90.3828125 77.16015625 C92.18582557 99.58545793 86.9250901 121.06056256 72.65869141 138.67089844 C67.29081007 144.93650811 61.40891035 148.76884509 54.3828125 153.16015625 C70.2228125 153.49015625 86.0628125 153.82015625 102.3828125 154.16015625 C102.3828125 160.76015625 102.3828125 167.36015625 102.3828125 174.16015625 C99.07192246 175.81560127 95.37601012 175.29820488 91.73657227 175.28955078 C90.84021057 175.2913031 89.94384888 175.29305542 89.02032471 175.29486084 C86.03827 175.29928226 83.05627414 175.29633616 80.07421875 175.29296875 C77.99267058 175.29364271 75.91112249 175.29461351 73.82957458 175.29586792 C69.44879412 175.29734609 65.06803397 175.29519021 60.68725586 175.29052734 C55.12451037 175.2848899 49.56181377 175.28806975 43.99907017 175.29409981 C39.68767444 175.29775383 35.37628983 175.29654387 31.06489372 175.29397202 C29.01798433 175.2933129 26.97107387 175.29409491 24.92416573 175.29645157 C14.92755989 175.30541816 4.94733535 175.23318542 -5.03930664 174.75341797 C-6.17037543 174.70319079 -6.17037543 174.70319079 -7.32429409 174.65194893 C-24.28059942 173.72066289 -39.31417503 166.41356117 -52.6171875 156.16015625 C-53.53371094 155.47373047 -53.53371094 155.47373047 -54.46875 154.7734375 C-60.03410472 150.33894253 -64.28488161 144.76214326 -68.6171875 139.16015625 C-69.25011719 138.36609375 -69.88304688 137.57203125 -70.53515625 136.75390625 C-84.01744298 118.89657283 -86.90530005 95.41967921 -84.11328125 73.71875 C-80.6430264 51.39942093 -68.7011659 30.80621701 -50.6171875 17.16015625 C-46.14576895 14.12100872 -41.43209471 11.60661952 -36.6171875 9.16015625 C-35.6684375 8.66644531 -34.7196875 8.17273437 -33.7421875 7.6640625 C-23.04614791 2.42486869 -11.76721733 0.72008345 0 0 Z M-37.6171875 37.16015625 C-38.80054688 38.17722656 -38.80054688 38.17722656 -40.0078125 39.21484375 C-51.84978334 50.21095953 -58.15013817 63.8509418 -58.9921875 79.88671875 C-59.62209082 100.53737743 -55.87059442 117.60538406 -42.2421875 133.59765625 C-31.63674857 144.65631906 -17.52245678 151.70795332 -2.109375 152.49609375 C16.90970083 152.8692567 32.87161442 148.17568385 47 134.796875 C59.60289315 120.85105062 66.07123395 102.9652884 65.6328125 84.16796875 C64.07758511 65.45663918 57.88233432 49.76766522 43.8828125 36.72265625 C20.5886082 17.25708414 -14.7874773 17.45680763 -37.6171875 37.16015625 Z " fill="#F9D73F" transform="translate(190.6171875,52.83984375)"/>
<path d="M0 0 C3.97916063 -0.02769061 7.95827332 -0.04675405 11.9375 -0.0625 C13.07380859 -0.07087891 14.21011719 -0.07925781 15.38085938 -0.08789062 C16.46044922 -0.09111328 17.54003906 -0.09433594 18.65234375 -0.09765625 C20.15269165 -0.10551147 20.15269165 -0.10551147 21.68334961 -0.11352539 C24 0 24 0 25 1 C25.10092798 4.13469799 25.13613049 7.2473916 25.12939453 10.38256836 C25.13198902 11.86850919 25.13198902 11.86850919 25.13463593 13.38446903 C25.13902034 16.7029438 25.13603597 20.02136826 25.1328125 23.33984375 C25.13382619 25.67195654 25.1351645 28.00406921 25.1368103 30.33618164 C25.13951413 36.58144429 25.13504687 42.8266822 25.12857056 49.07194138 C25.12501785 52.91817041 25.12338634 56.76439575 25.12231445 60.61062622 C25.10964439 97.08408346 24.90792874 133.53693342 24 170 C16.08 170 8.16 170 0 170 C-0.15412107 149.90196003 -0.3023722 129.80388696 -0.4429636 109.7057476 C-0.50839664 100.37265478 -0.57585893 91.03958507 -0.64819336 81.70654297 C-0.71127625 73.56651502 -0.77045492 65.42646936 -0.82505554 57.28637993 C-0.85406678 52.98115427 -0.88495814 48.67596159 -0.92053413 44.37078476 C-0.95404582 40.30792374 -0.98228634 36.24505823 -1.00670624 32.18213272 C-1.0164959 30.70122153 -1.02811354 29.22032094 -1.04183006 27.73944092 C-1.1266533 18.43803012 -0.8071561 9.26872627 0 0 Z " fill="#FAB64A" transform="translate(50,57)"/>
</svg>
